<?xml version="1.0" encoding="utf-8"?>
<!-- Generator: Adobe Illustrator 27.7.0, SVG Export Plug-In . SVG Version: 6.00 Build 0)  -->
<svg version="1.1" xmlns="http://www.w3.org/2000/svg" xmlns:xlink="http://www.w3.org/1999/xlink" x="0px" y="0px"
	 viewBox="0 0 368.5 368.5" style="enable-background:new 0 0 368.5 368.5;" xml:space="preserve">
<style type="text/css">
	.st0{fill:none;stroke:#E37182;stroke-miterlimit:10;}
	.st1{fill:none;stroke:#ffffff;stroke-miterlimit:10;}
	.st2{display:none;}
	.st3{display:inline;}
	.st4{display:inline;clip-path:url(#SVGID_00000004545199504407673600000004118441139346741888_);}
	.st5{fill:none;stroke:#FFFFFF;stroke-width:12.2454;stroke-linecap:round;stroke-miterlimit:10;}
	.st6{fill:none;stroke:#ffffff;stroke-width:12.2454;stroke-linecap:round;stroke-miterlimit:10;}
	.st7{fill:none;stroke:#E37182;stroke-width:1.0395;stroke-miterlimit:10;}
	.st8{fill:#006633;stroke:#ffffff;stroke-width:2;stroke-miterlimit:10;}
	.st9{fill:none;stroke:#ffffff;stroke-linecap:round;stroke-miterlimit:10;}
</style>
<g id="Ebene_1">
</g>
<g id="Ebene_2">
	<g>
		<g>
			<path class="st6" d="M262.74,214.63c22.03-1.98,29.39-13.57,29.39-26.97c0-12.74-5.9-25.58-35.2-26.78
				c-5.3-0.22-22.64,0.96-22.64,0.96l0.2,53.39C234.5,215.24,254.57,215.37,262.74,214.63z"/>
			<path class="st6" d="M178.95,113.51c84.99-14.22,123.56-0.42,142.37,14.69c19.97,16.05,29.41,38.84,29.41,65.31
				c0,18.62-10.91,64.62-59.29,75.85l64.23,87.76h-75.19l-44.42-59.12l-0.11,59.54l-65.13-0.48l1.02-145.91
				c0,0-27.05,33.7-76.33,34.36c-5.55,0.07-70.77-1.47-81.22-65.18c-0.98-5.88-2.15-14.33-1.63-31.85h58.32
				c0.26,23.34,2.97,41.06,23.65,41.29c13.91,0.16,22.02-8.78,22.44-44.23c0.46-38.32,0-39.06,0-77.38H28.65V12.09h150.3V113.51z"/>
		</g>
	</g>
</g>
<g id="Ebene_3">
</g>
</svg>
